<?xml version="1.0" encoding="UTF-8" standalone="no"?>
<svg width="36px" height="30px" viewBox="0 0 36 30" version="1.1" xmlns="http://www.w3.org/2000/svg" xmlns:xlink="http://www.w3.org/1999/xlink">
    <!-- Generator: Sketch 39.1 (31720) - http://www.bohemiancoding.com/sketch -->
    <title>boligtype3</title>
    <desc>Created with Sketch.</desc>
    <defs></defs>
    <g id="Skjema" stroke="none" stroke-width="1" fill="none" fill-rule="evenodd" stroke-linejoin="round">
        <g id="Bolig-steg-3-type-blig" transform="translate(-92.000000, -356.000000)" stroke="#00373D">
            <g id="boligtype3" transform="translate(92.000000, 356.000000)">
                <g id="Group-12">
                    <g id="Group-3" transform="translate(0.000000, 28.500000)" stroke-linecap="round">
                        <path d="M0.75,0.75 L35.25,0.75" id="Stroke-1"></path>
                    </g>
                    <path d="M0.75,17.25 L15.75,11.25" id="Stroke-4" stroke-linecap="round"></path>
                    <path d="M3.75,16.07805 L3.75,29.24955" id="Stroke-6"></path>
                    <path d="M13.5,0.75 L35.25,14.25" id="Stroke-8" stroke-linecap="round"></path>
                    <path d="M32.25,12.4218 L32.25,29.2503" id="Stroke-10"></path>
                </g>
                <polyline id="Stroke-13" points="27.75 9.61005 27.75 3.74955 30.75 3.74955 30.75 11.46105"></polyline>
                <g id="Group-21" transform="translate(6.000000, 1.500000)">
                    <polygon id="Stroke-14" stroke-linecap="round" points="12.75 27.75 23.25 27.75 23.25 21.75 12.75 21.75"></polygon>
                    <path d="M18.75,21.75 L18.75,27.75" id="Stroke-16" stroke-linecap="round"></path>
                    <path d="M17.25,11.25 C17.25,12.4935 16.242,13.5 15,13.5 C13.758,13.5 12.75,12.4935 12.75,11.25 C12.75,10.008 13.758,9 15,9 C16.242,9 17.25,10.008 17.25,11.25 L17.25,11.25 Z" id="Stroke-17" stroke-linecap="round"></path>
                    <polygon id="Stroke-18" stroke-linecap="round" points="0.75 27.75 6.75 27.75 6.75 20.25 0.75 20.25"></polygon>
                    <path d="M0.75,17.25 L6.75,17.25" id="Stroke-19" stroke-linecap="round"></path>
                    <path d="M9.75,0.67965 L9.75,27.75015" id="Stroke-20"></path>
                </g>
            </g>
        </g>
    </g>
</svg>