<?xml version="1.0" encoding="UTF-8" standalone="no"?>
<svg width="36px" height="30px" viewBox="0 0 36 30" version="1.1" xmlns="http://www.w3.org/2000/svg" xmlns:xlink="http://www.w3.org/1999/xlink">
    <!-- Generator: Sketch 39.1 (31720) - http://www.bohemiancoding.com/sketch -->
    <title>boligtype1</title>
    <desc>Created with Sketch.</desc>
    <defs></defs>
    <g id="Skjema" stroke="none" stroke-width="1" fill="none" fill-rule="evenodd" stroke-linejoin="round">
        <g id="Bolig-steg-3-type-blig" transform="translate(-92.000000, -263.000000)" stroke="#00373D">
            <g id="boligtype1" transform="translate(92.000000, 263.000000)">
                <g id="Group-7" transform="translate(0.000000, 0.750000)" stroke-linecap="round">
                    <g id="Group-3" transform="translate(0.000000, 27.500000)">
                        <path d="M0.75,0.75 L35.25,0.75" id="Stroke-1"></path>
                    </g>
                    <polygon id="Stroke-4" points="5.25 28.25 30.75 28.25 30.75 13.25 5.25 13.25"></polygon>
                    <polygon id="Stroke-6" points="18 0.5 0.75 13.25 35.25 13.25"></polygon>
                </g>
                <polyline id="Stroke-8" points="30.75 10.68725 30.75 3.49925 26.25 3.49925 26.25 7.36625"></polyline>
                <polygon id="Stroke-9" points="9.75 26 14.25 26 14.25 18.5 9.75 18.5"></polygon>
                <polygon id="Stroke-10" points="18.75 23 26.25 23 26.25 18.5 18.75 18.5"></polygon>
                <polygon id="Stroke-11" points="8.25 29 15.75 29 15.75 26 8.25 26"></polygon>
            </g>
        </g>
    </g>
</svg>