<?xml version="1.0" encoding="UTF-8" standalone="no"?>
<svg width="36px" height="30px" viewBox="0 0 36 30" version="1.1" xmlns="http://www.w3.org/2000/svg" xmlns:xlink="http://www.w3.org/1999/xlink">
    <!-- Generator: Sketch 39.1 (31720) - http://www.bohemiancoding.com/sketch -->
    <title>boligtype2</title>
    <desc>Created with Sketch.</desc>
    <defs></defs>
    <g id="Skjema" stroke="none" stroke-width="1" fill="none" fill-rule="evenodd" stroke-linejoin="round">
        <g id="Bolig-steg-3-type-blig" transform="translate(-244.000000, -265.000000)" stroke="#00373D">
            <g id="boligtype2" transform="translate(244.000000, 265.000000)">
                <g id="Group-14">
                    <polygon id="Stroke-1" points="12.75 17.25 3.75 17.25 3.75 29.25 32.25 29.25 32.25 17.25 23.25 17.25"></polygon>
                    <polyline id="Stroke-3" points="12 17.25 0.75 17.25 5.25 6.75 14.478 6.75"></polyline>
                    <polyline id="Stroke-5" points="21.59325 6.75 30.74925 6.75 35.24925 17.25 23.99925 17.25"></polyline>
                    <polygon id="Stroke-7" points="6.75 6.75 9.75 6.75 9.75 0.75 6.75 0.75"></polygon>
                    <path d="M5.2734,0.75 L11.2494,0.75" id="Stroke-9" stroke-linecap="round"></path>
                    <polygon id="Stroke-10" points="26.25 6.75 29.25 6.75 29.25 0.75 26.25 0.75"></polygon>
                    <path d="M24.7734,0.75 L30.7494,0.75" id="Stroke-11" stroke-linecap="round"></path>
                    <polygon id="Stroke-12" stroke-linecap="round" points="12.75 29.25 23.25 29.25 23.25 12.75 12.75 12.75"></polygon>
                    <polygon id="Stroke-13" stroke-linecap="round" points="18 2.28075 26.25 12.75075 9.75 12.75075"></polygon>
                </g>
                <polygon id="Stroke-15" points="26.25 23.25 29.25 23.25 29.25 20.25 26.25 20.25"></polygon>
                <polygon id="Stroke-16" points="6.75 23.25 9.75 23.25 9.75 20.25 6.75 20.25"></polygon>
                <polygon id="Stroke-17" points="15.75 29.25 20.25 29.25 20.25 20.25 15.75 20.25"></polygon>
            </g>
        </g>
    </g>
</svg>