<?xml version="1.0" encoding="UTF-8" standalone="no"?>
<svg width="26px" height="34px" viewBox="0 0 26 34" version="1.1" xmlns="http://www.w3.org/2000/svg" xmlns:xlink="http://www.w3.org/1999/xlink">
    <!-- Generator: Sketch 39.1 (31720) - http://www.bohemiancoding.com/sketch -->
    <title>eierskap4</title>
    <desc>Created with Sketch.</desc>
    <defs></defs>
    <g id="Skjema" stroke="none" stroke-width="1" fill="none" fill-rule="evenodd" stroke-linecap="round" stroke-linejoin="round">
        <g id="Bolig-steg-2-eierfordeling-(knapper)" transform="translate(-247.000000, -356.000000)" stroke="#00373D">
            <g id="eierskap4" transform="translate(247.000000, 356.000000)">
                <polygon id="Stroke-1" points="0.708333333 33.2916667 24.7916667 33.2916667 24.7916667 3.54166667 0.708333333 3.54166667"></polygon>
                <polygon id="Stroke-3" points="10.625 33.2916667 14.875 33.2916667 14.875 27.625 10.625 27.625"></polygon>
                <polygon id="Stroke-5" points="10.625 24.7916667 14.875 24.7916667 14.875 20.5416667 10.625 20.5416667"></polygon>
                <polygon id="Stroke-6" points="17.7083333 24.7916667 21.9583333 24.7916667 21.9583333 20.5416667 17.7083333 20.5416667"></polygon>
                <polygon id="Stroke-7" points="3.54166667 24.7916667 7.79166667 24.7916667 7.79166667 20.5416667 3.54166667 20.5416667"></polygon>
                <polygon id="Stroke-8" points="10.625 17.7083333 14.875 17.7083333 14.875 13.4583333 10.625 13.4583333"></polygon>
                <polygon id="Stroke-9" points="17.7083333 17.7083333 21.9583333 17.7083333 21.9583333 13.4583333 17.7083333 13.4583333"></polygon>
                <polygon id="Stroke-10" points="3.54166667 17.7083333 7.79166667 17.7083333 7.79166667 13.4583333 3.54166667 13.4583333"></polygon>
                <polygon id="Stroke-11" points="10.625 10.625 14.875 10.625 14.875 6.375 10.625 6.375"></polygon>
                <polygon id="Stroke-12" points="17.7083333 10.625 21.9583333 10.625 21.9583333 6.375 17.7083333 6.375"></polygon>
                <polygon id="Stroke-13" points="3.54166667 10.625 7.79166667 10.625 7.79166667 6.375 3.54166667 6.375"></polygon>
                <polygon id="Stroke-14" points="21.9583333 0.708333333 3.54166667 0.708333333 0.708333333 3.54166667 24.7916667 3.54166667"></polygon>
            </g>
        </g>
    </g>
</svg>